<?xml version="1.0" encoding="UTF-8" standalone="no"?>
<!-- Created with Inkscape (http://www.inkscape.org/) -->

<svg
   version="1.1"
   id="svg18"
   width="610.34668"
   height="153.11867"
   viewBox="0 0 610.34668 153.11867"
   sodipodi:docname="logo_ovalpronos.svg"
   inkscape:version="1.2.1 (9c6d41e, 2022-07-14)"
   xmlns:inkscape="http://www.inkscape.org/namespaces/inkscape"
   xmlns:sodipodi="http://sodipodi.sourceforge.net/DTD/sodipodi-0.dtd"
   xmlns="http://www.w3.org/2000/svg"
   xmlns:svg="http://www.w3.org/2000/svg">
  <defs
     id="defs22">
    <clipPath
       clipPathUnits="userSpaceOnUse"
       id="clipPath34">
      <path
         d="M 0,114.839 H 457.76 V 0 H 0 Z"
         id="path32" />
    </clipPath>
    <clipPath
       clipPathUnits="userSpaceOnUse"
       id="clipPath42">
      <path
         d="M -711.006,341.246 H 406.085 V -775.845 H -711.006 Z"
         id="path40" />
    </clipPath>
    <clipPath
       clipPathUnits="userSpaceOnUse"
       id="clipPath60">
      <path
         d="M 0,114.839 H 457.76 V 0 H 0 Z"
         id="path58" />
    </clipPath>
  </defs>
  <sodipodi:namedview
     id="namedview20"
     pagecolor="#ffffff"
     bordercolor="#000000"
     borderopacity="0.25"
     inkscape:showpageshadow="2"
     inkscape:pageopacity="0.0"
     inkscape:pagecheckerboard="0"
     inkscape:deskcolor="#d1d1d1"
     showgrid="false"
     inkscape:zoom="1.1756216"
     inkscape:cx="280.70257"
     inkscape:cy="176.92768"
     inkscape:window-width="1728"
     inkscape:window-height="1080"
     inkscape:window-x="0"
     inkscape:window-y="37"
     inkscape:window-maximized="0"
     inkscape:current-layer="g56">
    <inkscape:page
       x="0"
       y="0"
       id="page24"
       width="610.34668"
       height="153.11867" />
  </sodipodi:namedview>
  <g
     id="g26"
     inkscape:groupmode="layer"
     inkscape:label="Page 1"
     transform="matrix(1.3333333,0,0,-1.3333333,0,153.11867)">
    <g
       id="g28">
      <g
         id="g30"
         clip-path="url(#clipPath34)">
        <g
           id="g36">
          <g
             id="g38" />
        </g>
      </g>
    </g>
    <g
       id="g54">
      <g
         id="g56"
         clip-path="url(#clipPath60)">
        <g
           id="g62"
           transform="translate(42.4875,30.2958)"
           style="fill:#2b3467;fill-opacity:1">
          <path
             d="m 0,0 c 2.735,0 5.069,0.241 7.001,0.724 1.931,0.483 3.399,1.197 4.405,2.143 1.005,0.945 1.509,2.142 1.509,3.591 0,2.131 -1.127,3.741 -3.38,4.828 -2.254,1.086 -5.431,1.629 -9.535,1.629 -3.059,0 -5.864,-0.181 -8.419,-0.543 -2.556,-0.362 -4.607,-1.017 -6.156,-1.961 -1.549,-0.946 -2.323,-2.264 -2.323,-3.953 0,-1.69 0.774,-3.009 2.323,-3.954 1.549,-0.945 3.6,-1.599 6.156,-1.961 C -5.864,0.181 -3.059,0 0,0 m 5.432,-9.234 c -3.621,0 -6.88,0.373 -9.778,1.117 -2.896,0.743 -5.371,1.81 -7.423,3.198 -2.051,1.388 -3.621,3.048 -4.707,4.979 -1.087,1.931 -1.629,4.064 -1.629,6.398 0,2.333 0.542,4.455 1.629,6.367 1.086,1.91 2.656,3.56 4.707,4.948 2.052,1.389 4.527,2.454 7.423,3.199 2.898,0.744 6.157,1.116 9.778,1.116 4.344,0 8.216,-0.613 11.617,-1.84 3.399,-1.228 6.065,-3.008 7.997,-5.341 1.931,-2.334 2.896,-5.151 2.896,-8.449 0,-3.461 -0.965,-6.358 -2.896,-8.691 -1.932,-2.334 -4.598,-4.084 -7.997,-5.251 -3.401,-1.166 -7.273,-1.75 -11.617,-1.75 m -36.815,30.478 h 13.64 l 0.845,-11.467 v -30.176 h -14.485 z"
             style="fill:#2b3467;fill-opacity:1;fill-rule:nonzero;stroke:none"
             id="path64" />
        </g>
        <g
           id="g66"
           transform="translate(105.3118,40.3744)"
           style="fill:#2b3467;fill-opacity:1">
          <path
             d="m 0,0 c -2.615,0 -5.009,-0.242 -7.182,-0.724 -2.172,-0.483 -4.023,-1.056 -5.551,-1.72 -1.531,-0.664 -2.677,-1.319 -3.441,-1.962 l -0.121,2.897 c 0.121,0.845 0.442,1.841 0.966,2.988 0.522,1.146 1.226,2.333 2.112,3.56 0.885,1.227 1.971,2.374 3.259,3.44 1.287,1.066 2.766,1.932 4.437,2.595 1.668,0.664 3.509,0.996 5.521,0.996 z m -30.055,11.165 h 14.484 v -29.572 h -14.484 z"
             style="fill:#2b3467;fill-opacity:1;fill-rule:nonzero;stroke:none"
             id="path68" />
        </g>
        <g
           id="g70"
           transform="translate(137.2981,29.8129)"
           style="fill:#2b3467;fill-opacity:1">
          <path
             d="m 0,0 c 2.977,0 5.471,0.251 7.483,0.754 2.012,0.503 3.54,1.268 4.587,2.294 1.046,1.026 1.57,2.303 1.57,3.832 0,1.529 -0.514,2.816 -1.539,3.863 -1.027,1.045 -2.546,1.83 -4.557,2.353 -2.013,0.523 -4.526,0.785 -7.544,0.785 -2.979,0 -5.503,-0.262 -7.574,-0.785 -2.072,-0.523 -3.642,-1.297 -4.707,-2.324 -1.068,-1.025 -1.6,-2.323 -1.6,-3.892 0,-1.529 0.523,-2.806 1.569,-3.832 1.046,-1.026 2.605,-1.791 4.677,-2.294 C -5.562,0.251 -3.018,0 0,0 m 0,-8.751 c -6.397,0 -11.719,0.523 -15.963,1.569 -4.245,1.046 -7.424,2.716 -9.536,5.009 -2.112,2.294 -3.168,5.311 -3.168,9.053 0,3.742 1.056,6.769 3.168,9.083 2.112,2.313 5.291,4.003 9.536,5.069 4.244,1.066 9.566,1.6 15.963,1.6 6.356,0 11.638,-0.534 15.842,-1.6 4.204,-1.066 7.352,-2.756 9.445,-5.069 2.092,-2.314 3.139,-5.341 3.139,-9.083 0,-3.742 -1.047,-6.759 -3.139,-9.053 C 23.194,-4.466 20.046,-6.136 15.842,-7.182 11.638,-8.228 6.356,-8.751 0,-8.751"
             style="fill:#2b3467;fill-opacity:1;fill-rule:nonzero;stroke:none"
             id="path72" />
        </g>
        <g
           id="g74"
           transform="translate(206.7619,52.4447)"
           style="fill:#2b3467;fill-opacity:1">
          <path
             d="m 0,0 c 2.373,0 4.667,-0.252 6.88,-0.754 2.212,-0.504 4.194,-1.358 5.944,-2.565 1.75,-1.207 3.148,-2.858 4.195,-4.949 1.045,-2.093 1.569,-4.729 1.569,-7.906 V -30.478 H 4.104 v 12.493 c 0,3.018 -0.785,5.16 -2.354,6.427 -1.569,1.268 -4.405,1.902 -8.51,1.902 -2.173,0 -4.275,-0.242 -6.306,-0.724 -2.033,-0.483 -3.853,-1.057 -5.462,-1.721 -1.61,-0.664 -2.877,-1.318 -3.802,-1.961 l -0.121,2.293 c 0.16,0.725 0.714,1.74 1.66,3.048 0.944,1.307 2.323,2.625 4.134,3.953 1.81,1.328 4.094,2.454 6.849,3.38 C -7.052,-0.463 -3.782,0 0,0 m -36.211,-0.905 h 14.484 v -29.572 h -14.484 z"
             style="fill:#2b3467;fill-opacity:1;fill-rule:nonzero;stroke:none"
             id="path76" />
        </g>
        <g
           id="g78"
           transform="translate(258.844,29.8129)"
           style="fill:#2b3467;fill-opacity:1">
          <path
             d="m 0,0 c 2.977,0 5.471,0.251 7.483,0.754 2.012,0.503 3.54,1.268 4.587,2.294 1.046,1.026 1.57,2.303 1.57,3.832 0,1.529 -0.514,2.816 -1.539,3.863 -1.027,1.045 -2.546,1.83 -4.557,2.353 -2.013,0.523 -4.526,0.785 -7.544,0.785 -2.979,0 -5.503,-0.262 -7.574,-0.785 -2.072,-0.523 -3.642,-1.297 -4.707,-2.324 -1.068,-1.025 -1.6,-2.323 -1.6,-3.892 0,-1.529 0.523,-2.806 1.569,-3.832 1.046,-1.026 2.605,-1.791 4.677,-2.294 C -5.562,0.251 -3.018,0 0,0 m 0,-8.751 c -6.397,0 -11.719,0.523 -15.963,1.569 -4.245,1.046 -7.424,2.716 -9.536,5.009 -2.112,2.294 -3.168,5.311 -3.168,9.053 0,3.742 1.056,6.769 3.168,9.083 2.112,2.313 5.291,4.003 9.536,5.069 4.244,1.066 9.566,1.6 15.963,1.6 6.356,0 11.638,-0.534 15.842,-1.6 4.204,-1.066 7.352,-2.756 9.445,-5.069 2.092,-2.314 3.139,-5.341 3.139,-9.083 0,-3.742 -1.047,-6.759 -3.139,-9.053 C 23.194,-4.466 20.046,-6.136 15.842,-7.182 11.638,-8.228 6.356,-8.751 0,-8.751"
             style="fill:#2b3467;fill-opacity:1;fill-rule:nonzero;stroke:none"
             id="path80" />
        </g>
        <g
           id="g82"
           transform="translate(291.7951,32.5887)"
           style="fill:#2b3467;fill-opacity:1">
          <path
             d="m 0,0 h 13.338 c 0.562,-1.046 1.639,-1.771 3.228,-2.172 1.589,-0.403 3.872,-0.604 6.85,-0.604 2.294,0 3.993,0.121 5.1,0.362 1.106,0.242 1.831,0.563 2.172,0.966 0.342,0.402 0.513,0.824 0.513,1.267 0,0.684 -0.372,1.156 -1.116,1.418 -0.745,0.262 -2.002,0.423 -3.772,0.483 -1.771,0.061 -4.205,0.091 -7.302,0.091 -2.938,0 -5.563,0.13 -7.876,0.392 C 8.82,2.464 6.859,2.887 5.251,3.47 3.641,4.053 2.414,4.868 1.569,5.915 0.725,6.96 0.302,8.269 0.302,9.837 c 0,1.932 0.623,3.551 1.871,4.859 1.246,1.307 2.936,2.333 5.069,3.078 2.132,0.744 4.596,1.276 7.393,1.599 2.796,0.321 5.723,0.483 8.781,0.483 5.069,0 9.213,-0.513 12.433,-1.539 3.218,-1.026 5.591,-2.405 7.121,-4.134 1.529,-1.73 2.273,-3.682 2.233,-5.854 H 32.228 c -0.444,1.046 -1.278,1.77 -2.505,2.172 -1.228,0.402 -3.329,0.604 -6.307,0.604 -2.816,0 -4.858,-0.211 -6.125,-0.634 -1.268,-0.422 -1.901,-1.096 -1.901,-2.022 0,-0.603 0.311,-1.056 0.935,-1.358 0.623,-0.301 1.811,-0.512 3.561,-0.633 1.75,-0.121 4.315,-0.181 7.694,-0.181 2.333,0 4.617,-0.081 6.851,-0.242 2.232,-0.161 4.244,-0.503 6.035,-1.026 1.789,-0.523 3.208,-1.327 4.255,-2.414 1.045,-1.086 1.568,-2.575 1.568,-4.466 0,-2.293 -0.935,-4.154 -2.806,-5.582 -1.871,-1.429 -4.517,-2.465 -7.936,-3.108 -3.42,-0.644 -7.464,-0.966 -12.131,-0.966 -4.064,0 -7.494,0.262 -10.29,0.785 -2.797,0.522 -5.079,1.216 -6.85,2.082 -1.77,0.865 -3.129,1.81 -4.073,2.836 C 1.257,-4.798 0.634,-3.771 0.332,-2.746 0.03,-1.72 -0.081,-0.805 0,0"
             style="fill:#2b3467;fill-opacity:1;fill-rule:nonzero;stroke:none"
             id="path84" />
        </g>
        <g
           id="g86"
           transform="translate(174.1106,70.5424)"
           style="fill:#2b3467;fill-opacity:1">
          <path
             d="m 0,0 c 2.977,0 5.471,0.251 7.483,0.754 2.012,0.503 3.54,1.268 4.587,2.294 1.046,1.026 1.57,2.303 1.57,3.832 0,1.529 -0.514,2.816 -1.539,3.863 -1.027,1.045 -2.546,1.83 -4.557,2.353 -2.013,0.523 -4.526,0.785 -7.544,0.785 -2.979,0 -5.503,-0.262 -7.574,-0.785 -2.072,-0.523 -3.642,-1.297 -4.707,-2.324 -1.068,-1.025 -1.6,-2.323 -1.6,-3.892 0,-1.529 0.523,-2.806 1.569,-3.832 1.046,-1.026 2.605,-1.791 4.677,-2.294 C -5.562,0.251 -3.018,0 0,0 m 0,-8.751 c -6.397,0 -11.719,0.523 -15.963,1.569 -4.245,1.046 -7.424,2.716 -9.536,5.009 -2.112,2.294 -3.168,5.311 -3.168,9.053 0,3.742 1.056,6.769 3.168,9.083 2.112,2.313 5.291,4.003 9.536,5.069 4.244,1.066 9.566,1.6 15.963,1.6 6.356,0 11.638,-0.534 15.842,-1.6 4.204,-1.066 7.352,-2.756 9.445,-5.069 2.092,-2.314 3.139,-5.341 3.139,-9.083 0,-3.742 -1.047,-6.759 -3.139,-9.053 C 23.194,-4.466 20.046,-6.136 15.842,-7.182 11.638,-8.228 6.356,-8.751 0,-8.751"
             style="fill:#2b3467;fill-opacity:1;fill-rule:nonzero;stroke:none"
             id="path88" />
        </g>
        <g
           id="g90"
           transform="translate(233.6164,68.1283)"
           style="fill:#2b3467;fill-opacity:1">
          <path
             d="M 0,0 -6.88,0.121 8.328,24.141 H 24.321 L 3.259,-5.432 h -13.64 l -20.097,29.573 h 15.933 z"
             style="fill:#2b3467;fill-opacity:1;fill-rule:nonzero;stroke:none"
             id="path92" />
        </g>
        <g
           id="g94"
           transform="translate(302.7795,92.2689)"
           style="fill:#2b3467;fill-opacity:1">
          <path
             d="M 0,0 H 14.484 V -29.572 H 0.845 c -0.282,1.85 -0.493,3.641 -0.634,5.371 C 0.07,-22.472 0,-20.439 0,-18.105 Z m -16.898,-21.244 c 3.057,0 5.863,0.191 8.419,0.574 2.554,0.381 4.606,1.035 6.156,1.961 1.548,0.925 2.323,2.233 2.323,3.923 0,1.729 -0.775,3.057 -2.323,3.983 -1.55,0.925 -3.602,1.569 -6.156,1.931 -2.556,0.362 -5.362,0.543 -8.419,0.543 -4.104,0 -7.283,-0.533 -9.536,-1.599 -2.253,-1.067 -3.379,-2.686 -3.379,-4.858 0,-1.409 0.502,-2.595 1.508,-3.561 1.005,-0.965 2.475,-1.69 4.406,-2.173 1.931,-0.482 4.264,-0.724 7.001,-0.724 m -5.432,-9.173 c -4.345,0 -8.207,0.614 -11.587,1.84 -3.38,1.227 -6.046,3.008 -7.997,5.342 -1.952,2.333 -2.927,5.149 -2.927,8.449 0,3.46 0.975,6.356 2.927,8.69 1.951,2.333 4.617,4.083 7.997,5.251 3.38,1.166 7.242,1.75 11.587,1.75 4.828,0 9.002,-0.655 12.523,-1.961 3.52,-1.308 6.236,-3.138 8.148,-5.492 1.91,-2.354 2.866,-5.1 2.866,-8.238 0,-2.334 -0.543,-4.457 -1.629,-6.367 -1.087,-1.912 -2.656,-3.561 -4.708,-4.949 -2.052,-1.388 -4.526,-2.455 -7.423,-3.199 -2.897,-0.744 -6.156,-1.116 -9.777,-1.116"
             style="fill:#2b3467;fill-opacity:1;fill-rule:nonzero;stroke:none"
             id="path96" />
        </g>
        <path
           d="m 323.6,104.339 h 14.484 V 62.696 H 323.6 Z"
           style="fill:#2b3467;fill-opacity:1;fill-rule:nonzero;stroke:none"
           id="path98" />
        <g
           id="g6017"
           inkscape:export-filename="logo_carre.svg"
           inkscape:export-xdpi="96"
           inkscape:export-ydpi="96">
          <g
             id="g100"
             transform="translate(446.6021,73.1431)"
             style="display:inline;fill:#bad7e9;fill-opacity:1">
            <path
               d="M 0,0 C -0.013,0.226 -0.188,0.305 -0.376,0.289 -0.566,0.305 -0.77,0.223 -0.84,0.012 c -2.781,-8.47 -7.411,-16.536 -14.733,-21.852 -0.091,1.165 -0.583,2.323 -1.322,3.185 -1.082,1.263 -1.806,2.65 -2.12,4.297 -0.084,0.441 -0.595,0.962 -1.074,0.93 -0.228,-0.015 -0.429,-0.074 -0.617,-0.15 0.019,2.116 0.226,4.239 0.815,6.263 0.203,0.696 0.448,1.385 0.774,2.034 0.085,0.168 0.176,0.332 0.273,0.494 0.019,0.032 0.023,0.04 0.029,0.052 0.004,0.003 0.006,0.004 0.021,0.025 0.166,0.218 0.118,0.51 -0.031,0.774 3.237,1.85 6.147,4.384 7.87,7.541 0.203,0.373 -0.412,0.402 -0.611,0.317 -0.952,-0.406 -1.971,-0.861 -3.004,-1.136 1.494,1.309 2.884,2.764 4.151,4.279 2.502,2.995 4.876,6.644 5.038,10.662 0.015,0.358 -0.461,0.34 -0.707,0.186 2.432,4.044 3.392,9.075 2.442,13.61 -0.067,0.323 -0.546,0.201 -0.725,0.089 -1.163,-0.724 -2.347,-1.425 -3.546,-2.103 -0.089,0.024 -0.157,0.028 -0.174,-0.003 -0.028,-0.051 -0.066,-0.098 -0.095,-0.149 -2.52,-1.412 -5.115,-2.705 -7.768,-3.803 -4.669,-1.932 -9.789,-2.458 -13.729,-5.912 -0.104,-0.091 -0.197,-0.191 -0.298,-0.284 -1.279,-0.713 -2.429,-1.58 -3.455,-2.561 -0.177,0.091 -0.415,0.126 -0.711,0.042 -1.142,-0.322 -2.529,-0.199 -3.54,0.447 0.643,0.498 1.218,1.168 1.127,1.94 -0.038,0.32 -0.289,0.511 -0.616,0.507 -1.346,-0.019 -2.808,0.061 -4.124,0.462 0.67,0.577 1.286,1.298 1.365,2.129 0.064,0.668 -0.958,0.517 -1.291,0.335 -0.016,-0.009 -0.041,-0.021 -0.065,-0.032 -0.121,-0.049 -0.242,-0.099 -0.367,-0.14 -0.413,-0.139 -0.905,-0.219 -1.398,-0.199 -1.967,0.08 -3.307,1.725 -4.132,3.351 -0.116,0.229 -0.335,0.345 -0.593,0.345 h -0.013 c -0.444,0 -0.886,-0.204 -1.093,-0.611 -0.776,-1.532 -1.992,-3.073 -3.856,-3.09 -0.685,-0.006 -1.425,0.179 -1.921,0.45 -0.427,0.233 -1.569,-0.035 -1.508,-0.679 0.076,-0.795 0.62,-1.45 1.241,-1.991 -1.135,-0.274 -2.34,-0.346 -3.484,-0.33 -0.457,0.006 -1.07,-0.262 -1.131,-0.777 -0.092,-0.773 0.465,-1.412 1.089,-1.875 -0.978,-0.514 -2.188,-0.495 -3.24,-0.199 -0.177,0.05 -0.381,0.022 -0.576,-0.051 -1.247,1.24 -2.687,2.253 -4.269,3.027 -0.045,0.022 -0.116,0.021 -0.193,0.01 -1.552,1.306 -3.327,2.305 -5.226,3.042 -2.358,0.916 -4.849,1.394 -7.21,2.291 -2.762,1.049 -5.415,2.386 -8.008,3.795 -0.27,0.147 -0.533,0.306 -0.802,0.455 -0.01,0.018 -0.023,0.034 -0.033,0.051 -0.039,0.073 -0.127,0.099 -0.23,0.098 -0.762,0.425 -1.526,0.847 -2.277,1.29 -0.332,0.196 -0.663,0.394 -0.993,0.594 -0.082,0.05 -0.497,0.305 -0.358,0.218 -0.185,0.115 -0.472,0.177 -0.532,-0.11 -0.988,-4.718 0.089,-9.975 2.72,-14.115 -0.12,0.144 -0.244,0.288 -0.359,0.432 -0.193,0.243 -0.638,0.263 -0.622,-0.124 0.163,-4.034 2.527,-7.699 5.032,-10.714 1.236,-1.489 2.591,-2.919 4.047,-4.214 -1.063,0.278 -2.106,0.736 -3.091,1.156 -0.349,0.149 -0.532,-0.169 -0.369,-0.469 1.669,-3.058 4.454,-5.534 7.569,-7.372 -0.024,-0.18 0.029,-0.391 0.197,-0.613 0.536,-0.708 0.771,-1.481 1.056,-2.444 0.649,-2.19 0.837,-4.508 0.816,-6.802 -0.308,0.193 -0.659,0.322 -1.059,0.349 -0.371,0.024 -0.586,-0.24 -0.649,-0.573 -0.307,-1.611 -1.042,-3.099 -2.133,-4.313 -0.866,-0.964 -1.334,-2.318 -1.305,-3.633 -2.622,1.914 -4.981,4.198 -6.989,6.776 -3.472,4.458 -5.929,9.621 -7.686,14.972 -0.005,0.015 -0.019,0.027 -0.027,0.041 -0.009,0.021 -0.023,0.039 -0.037,0.058 -0.008,0.009 -0.013,0.018 -0.022,0.026 -0.187,0.206 -0.637,0.266 -0.76,0.075 -0.032,-0.034 -0.046,-0.078 -0.038,-0.133 -0.359,-6.226 0.693,-12.762 2.473,-18.7 1.599,-5.329 4.023,-10.444 7.468,-14.832 2.862,-3.645 6.398,-6.663 10.378,-8.964 -0.076,-0.078 -0.121,-0.165 -0.095,-0.25 0.822,-2.598 2.179,-5.096 3.653,-7.371 3.105,-4.792 7.394,-8.876 12.707,-11.099 3.549,-1.485 7.378,-2.042 11.205,-1.885 3.439,-0.384 7.255,0.343 10.475,1.535 2.913,1.079 5.598,2.703 7.952,4.725 3.669,3.151 6.539,7.224 8.558,11.604 0.4,0.868 0.785,1.757 1.08,2.669 0.593,0.343 1.183,0.693 1.756,1.069 2.645,1.731 5.044,3.826 7.138,6.192 6.884,7.779 10.21,18.193 11.146,28.397 C -0.009,-4.655 0.136,-2.307 0,0"
               style="fill:#bad7e9;fill-opacity:1;fill-rule:nonzero;stroke:none"
               id="path102" />
          </g>
          <path
             d="m 388.2726,62.732 c 0,-1.298 -1.02,-2.058 -2.318,-2.058 -1.298,0 -2.382,0.76 -2.382,2.058 0,1.298 0.895,2.282 2.193,2.282 1.298,0 2.507,-0.984 2.507,-2.282"
             style="fill:#2b3467;fill-opacity:1;fill-rule:nonzero;stroke:none"
             id="path106" />
          <path
             d="m 387.5842,62.732 c -0.001,-0.065 -0.005,-0.129 -0.008,-0.194 -0.005,-0.135 -0.004,-0.032 0.002,-0.002 -0.018,-0.098 -0.04,-0.195 -0.071,-0.289 -0.009,-0.027 -0.086,-0.194 -0.015,-0.05 -0.016,-0.033 -0.032,-0.067 -0.05,-0.1 -0.027,-0.049 -0.059,-0.095 -0.087,-0.143 -0.069,-0.121 0.077,0.073 -0.026,-0.037 -0.063,-0.068 -0.128,-0.131 -0.195,-0.196 -0.088,-0.085 -0.014,-0.013 0.009,0.004 -0.046,-0.033 -0.092,-0.065 -0.14,-0.094 -0.082,-0.05 -0.166,-0.094 -0.254,-0.134 0.123,0.056 0.029,0.013 0.002,0.004 -0.067,-0.021 -0.132,-0.044 -0.199,-0.063 -0.049,-0.013 -0.099,-0.025 -0.148,-0.036 0.004,10e-4 -0.195,-0.036 -0.093,-0.02 0.104,0.017 -0.102,-0.01 -0.097,-0.009 -0.054,-0.005 -0.108,-0.007 -0.161,-0.009 -0.109,-0.003 -0.219,-10e-4 -0.327,0.007 -0.054,0.003 -0.107,0.008 -0.16,0.015 0.151,-0.021 -0.052,0.013 -0.066,0.016 -0.1,0.021 -0.2,0.048 -0.297,0.08 -0.057,0.018 -0.114,0.038 -0.169,0.062 0.028,-0.012 0.11,-0.059 0.002,0.003 -0.084,0.049 -0.17,0.091 -0.251,0.145 -10e-4,0 -0.148,0.112 -0.069,0.048 0.066,-0.054 -0.086,0.081 -0.1,0.095 -0.027,0.027 -0.051,0.056 -0.078,0.082 -0.126,0.121 0.063,-0.111 -0.032,0.037 -0.051,0.08 -0.098,0.16 -0.144,0.243 -0.015,0.028 -0.043,0.119 0.001,-0.005 -0.02,0.055 -0.039,0.11 -0.055,0.167 -0.01,0.039 -0.017,0.079 -0.028,0.117 -0.014,0.08 -0.015,0.08 -0.005,-10e-4 -0.004,0.032 -0.007,0.063 -0.009,0.095 -0.007,0.098 -0.007,0.195 -0.003,0.293 0.003,0.064 0.008,0.128 0.016,0.192 -0.017,-0.131 -10e-4,-0.022 0.005,0.003 0.025,0.099 0.045,0.199 0.077,0.296 0.007,0.02 0.081,0.203 0.017,0.058 0.024,0.054 0.05,0.107 0.078,0.158 0.046,0.085 0.098,0.166 0.155,0.245 -0.087,-0.119 0.09,0.092 0.118,0.119 0.034,0.033 0.07,0.065 0.106,0.096 0.081,0.072 -0.134,-0.081 0.019,0.014 0.099,0.062 0.196,0.121 0.302,0.172 -0.133,-0.065 0.124,0.041 0.17,0.053 0.039,0.011 0.078,0.02 0.118,0.029 -0.004,-0.001 0.194,0.032 0.092,0.019 -0.103,-0.014 0.105,0.006 0.099,0.006 0.054,0.002 0.109,0.003 0.163,0.003 0.055,-10e-4 0.11,-0.006 0.165,-0.008 0.161,-0.004 -0.069,0.022 0.076,-0.008 0.127,-0.026 0.253,-0.055 0.377,-0.096 -0.01,0.004 0.187,-0.07 0.098,-0.033 -0.056,0.023 0.127,-0.062 0.15,-0.074 0.112,-0.06 0.22,-0.127 0.322,-0.203 -0.025,0.018 -0.085,0.078 0.009,-0.01 0.046,-0.043 0.094,-0.084 0.138,-0.128 0.045,-0.044 0.085,-0.092 0.128,-0.138 0.123,-0.133 -0.051,0.097 0.044,-0.058 0.066,-0.106 0.131,-0.209 0.184,-0.323 -0.055,0.117 0.001,-0.006 0.011,-0.039 0.021,-0.07 0.043,-0.139 0.059,-0.211 0.01,-0.042 0.018,-0.083 0.024,-0.125 -0.023,0.149 0.001,-0.111 0.001,-0.14 0.006,-0.372 0.312,-0.688 0.688,-0.688 0.369,0 0.695,0.315 0.689,0.688 -0.021,1.316 -0.935,2.379 -2.149,2.799 -1.168,0.405 -2.534,0.085 -3.301,-0.906 -0.714,-0.923 -0.884,-2.379 -0.194,-3.366 0.714,-1.02 1.982,-1.394 3.178,-1.229 0.644,0.088 1.276,0.359 1.733,0.832 0.489,0.505 0.723,1.174 0.733,1.87 0.005,0.372 -0.32,0.688 -0.689,0.688 -0.377,0 -0.683,-0.315 -0.688,-0.688"
             style="fill:#2b3467;fill-opacity:1;fill-rule:nonzero;stroke:none"
             id="path110" />
          <path
             d="m 408.8251,62.732 c 0,-1.298 1.02,-2.058 2.318,-2.058 1.298,0 2.382,0.76 2.382,2.058 0,1.298 -0.895,2.282 -2.193,2.282 -1.298,0 -2.507,-0.984 -2.507,-2.282"
             style="fill:#2b3467;fill-opacity:1;fill-rule:nonzero;stroke:none"
             id="path114" />
          <path
             d="m 408.1367,62.732 c 0.017,-1.243 0.797,-2.252 1.985,-2.605 1.122,-0.334 2.516,-0.101 3.353,0.755 0.874,0.893 0.94,2.314 0.356,3.383 -0.616,1.128 -1.883,1.58 -3.106,1.378 -1.415,-0.233 -2.565,-1.464 -2.588,-2.911 -0.006,-0.372 0.321,-0.688 0.688,-0.688 0.378,0 0.683,0.315 0.689,0.688 0.001,0.065 0.004,0.13 0.009,0.195 -0.01,-0.124 -0.004,-0.019 0.002,0.008 0.024,0.103 0.052,0.202 0.083,0.303 0.055,0.181 -0.064,-0.1 0.028,0.065 0.02,0.036 0.038,0.073 0.058,0.109 0.031,0.055 0.066,0.105 0.099,0.158 0.073,0.119 -0.06,-0.054 0.044,0.058 0.284,0.308 0.562,0.496 0.876,0.596 0.103,0.033 0.208,0.06 0.314,0.08 0.033,0.006 0.174,0.021 0.043,0.009 0.054,0.005 0.109,0.009 0.163,0.011 0.109,0.004 0.217,0 0.326,-0.008 0.119,-0.01 -0.155,0.038 0.034,-0.006 0.06,-0.014 0.12,-0.025 0.179,-0.041 0.047,-0.013 0.3,-0.116 0.17,-0.053 0.087,-0.042 0.172,-0.087 0.254,-0.14 -10e-4,0 0.15,-0.109 0.07,-0.046 -0.081,0.063 0.062,-0.057 0.061,-0.057 0.035,-0.032 0.069,-0.065 0.102,-0.1 0.022,-0.024 0.149,-0.184 0.058,-0.058 0.056,-0.078 0.109,-0.16 0.155,-0.245 0.019,-0.034 0.035,-0.069 0.053,-0.104 0.087,-0.164 -0.031,0.124 0.022,-0.055 0.03,-0.097 0.062,-0.193 0.084,-0.292 0.009,-0.041 0.016,-0.082 0.024,-0.122 -0.028,0.149 0.005,-0.069 0.007,-0.102 0.006,-0.097 0.007,-0.195 0.002,-0.293 -0.002,-0.025 -0.037,-0.222 -0.005,-0.066 -0.008,-0.04 -0.015,-0.079 -0.025,-0.119 -0.011,-0.045 -0.107,-0.306 -0.044,-0.168 -0.048,-0.104 -0.106,-0.199 -0.168,-0.295 -0.097,-0.15 0.059,0.063 -0.014,-0.016 -0.032,-0.034 -0.063,-0.07 -0.096,-0.103 -0.034,-0.033 -0.069,-0.064 -0.104,-0.095 -0.081,-0.074 0.133,0.084 -0.018,-0.015 -0.081,-0.054 -0.16,-0.106 -0.246,-0.151 -0.035,-0.018 -0.07,-0.035 -0.105,-0.052 0.14,0.069 -0.084,-0.031 -0.114,-0.04 -0.098,-0.032 -0.197,-0.059 -0.297,-0.08 -0.041,-0.008 -0.082,-0.015 -0.123,-0.023 0.134,0.026 -0.003,0 -0.039,-0.003 -0.224,-0.021 -0.455,-0.021 -0.679,0.01 0.158,-0.022 -0.044,0.012 -0.063,0.016 -0.059,0.013 -0.119,0.027 -0.177,0.044 -0.048,0.014 -0.095,0.031 -0.142,0.045 -0.028,0.01 -0.056,0.02 -0.083,0.031 0.074,-0.033 0.075,-0.033 0.004,0 -0.102,0.053 -0.198,0.11 -0.296,0.17 -0.026,0.017 -0.098,0.081 0.006,-0.007 -0.042,0.036 -0.084,0.072 -0.124,0.111 -0.04,0.039 -0.076,0.08 -0.113,0.121 -0.113,0.12 0.056,-0.107 -0.026,0.037 -0.028,0.048 -0.06,0.094 -0.087,0.143 -0.017,0.031 -0.083,0.186 -0.026,0.041 -0.043,0.111 -0.069,0.223 -0.099,0.338 -0.007,0.027 -0.018,0.133 -0.003,-10e-4 -0.01,0.086 -0.013,0.171 -0.014,0.257 -0.005,0.372 -0.313,0.688 -0.689,0.688 -0.369,0 -0.693,-0.315 -0.688,-0.688"
             style="fill:#2b3467;fill-opacity:1;fill-rule:nonzero;stroke:none"
             id="path118" />
          <path
             d="m 378.5763,92.7658 c 2.893,-2.173 4.786,-5.401 6.023,-8.747 0.305,-0.824 1.636,-0.467 1.328,0.366 -1.374,3.718 -3.45,7.161 -6.656,9.57 -0.3,0.225 -0.767,0.046 -0.942,-0.247 -0.209,-0.35 -0.049,-0.72 0.247,-0.942"
             style="fill:#2b3467;fill-opacity:1;fill-rule:nonzero;stroke:none"
             id="path122" />
          <path
             d="m 357.5736,102.1358 c 0.815,-1.478 2.083,-2.789 3.355,-3.871 3.049,-2.594 6.777,-4.051 10.733,-4.522 l -0.183,1.352 c -1.206,-0.257 -2.4,-0.63 -3.54,-1.094 -1.474,-0.599 -3.277,-1.447 -3.797,-3.087 -0.14,-0.444 0.235,-0.852 0.664,-0.871 3.755,-0.168 8.102,-0.918 11.187,-3.171 0.717,-0.523 1.404,0.671 0.695,1.189 -3.274,2.391 -7.9,3.181 -11.882,3.359 0.222,-0.291 0.443,-0.581 0.664,-0.872 0.415,1.308 2.397,1.983 3.546,2.398 0.921,0.333 1.87,0.617 2.829,0.821 0.822,0.175 0.527,1.268 -0.183,1.352 -3.683,0.439 -7.231,1.877 -10.021,4.347 -1.086,0.961 -2.171,2.082 -2.878,3.365 -0.428,0.776 -1.617,0.082 -1.189,-0.695"
             style="fill:#2b3467;fill-opacity:1;fill-rule:nonzero;stroke:none"
             id="path126" />
          <path
             d="m 389.5447,78.7574 c -0.142,3.999 -1.988,8.17 -4.673,11.083 -1.36,1.477 -3.008,2.668 -4.809,3.549 -0.792,0.388 -1.491,-0.799 -0.694,-1.189 4.859,-2.377 7.869,-7.059 8.684,-12.33 0.045,-0.293 0.101,-0.7 0.115,-1.113 0.032,-0.883 1.408,-0.888 1.377,0"
             style="fill:#2b3467;fill-opacity:1;fill-rule:nonzero;stroke:none"
             id="path130" />
          <path
             d="m 389.8138,70.377 c -1.232,0.863 -2.614,1.546 -3.992,2.135 -2.824,1.205 -5.878,1.951 -8.964,1.764 -0.881,-0.053 -0.887,-1.43 0,-1.377 4.243,0.258 8.788,-1.277 12.261,-3.711 0.727,-0.509 1.416,0.684 0.695,1.189"
             style="fill:#2b3467;fill-opacity:1;fill-rule:nonzero;stroke:none"
             id="path134" />
          <path
             d="m 383.3019,44.5953 c 2.023,1.714 3.496,4.275 4.514,6.676 1.095,2.581 1.699,5.34 1.862,8.137 0.05,0.846 0.058,1.694 0.028,2.54 -0.02,0.569 0.072,1.308 -0.294,1.776 -0.379,0.485 -0.956,0.888 -1.454,1.237 -2.498,1.749 -5.397,1.644 -7.558,-0.586 -0.617,-0.637 0.355,-1.611 0.973,-0.974 1.401,1.446 3.153,1.859 4.968,0.93 0.783,-0.4 1.526,-0.945 2.116,-1.601 -0.067,0.162 -0.134,0.324 -0.201,0.487 0.342,-4.611 -0.391,-9.287 -2.651,-13.361 -0.856,-1.542 -1.915,-3.134 -3.277,-4.287 -0.677,-0.574 0.301,-1.544 0.974,-0.974"
             style="fill:#2b3467;fill-opacity:1;fill-rule:nonzero;stroke:none"
             id="path138" />
          <path
             d="m 415.4474,91.8126 c -1.934,-2.156 -3.278,-4.725 -4.277,-7.428 -0.129,-0.348 0.144,-0.754 0.481,-0.846 0.384,-0.106 0.717,0.13 0.847,0.48 0.913,2.471 2.155,4.85 3.923,6.82 0.59,0.658 -0.381,1.635 -0.974,0.974"
             style="fill:#2b3467;fill-opacity:1;fill-rule:nonzero;stroke:none"
             id="path142" />
          <path
             d="m 438.3353,102.8307 c -0.707,-1.283 -1.792,-2.404 -2.878,-3.365 -2.79,-2.47 -6.339,-3.908 -10.021,-4.347 -0.704,-0.083 -1.012,-1.175 -0.183,-1.352 0.959,-0.204 1.908,-0.487 2.829,-0.82 1.15,-0.416 3.131,-1.09 3.546,-2.399 0.221,0.291 0.442,0.581 0.664,0.872 -3.982,-0.178 -8.608,-0.968 -11.883,-3.359 -0.708,-0.517 -0.022,-1.712 0.695,-1.189 3.086,2.253 7.433,3.003 11.188,3.171 0.428,0.019 0.804,0.427 0.663,0.871 -0.519,1.64 -2.323,2.488 -3.796,3.087 -1.141,0.464 -2.335,0.837 -3.54,1.094 l -0.183,-1.352 c 3.955,0.471 7.684,1.928 10.732,4.522 1.273,1.082 2.541,2.393 3.356,3.871 0.428,0.777 -0.761,1.472 -1.189,0.695"
             style="fill:#2b3467;fill-opacity:1;fill-rule:nonzero;stroke:none"
             id="path146" />
          <path
             d="m 408.9298,78.7574 c 0.039,1.107 0.271,2.164 0.593,3.321 0.689,2.472 1.884,4.821 3.619,6.725 1.3,1.428 2.856,2.55 4.588,3.397 0.795,0.389 0.098,1.577 -0.695,1.189 -5.145,-2.517 -8.478,-7.589 -9.323,-13.192 -0.072,-0.475 -0.142,-0.958 -0.159,-1.44 -0.031,-0.886 1.346,-0.885 1.377,0"
             style="fill:#2b3467;fill-opacity:1;fill-rule:nonzero;stroke:none"
             id="path150" />
          <path
             d="m 407.9788,69.1882 c 3.474,2.434 8.018,3.969 12.262,3.711 0.885,-0.054 0.881,1.323 0,1.377 -3.087,0.187 -6.14,-0.561 -8.965,-1.765 -1.378,-0.587 -2.761,-1.271 -3.992,-2.134 -0.72,-0.505 -0.033,-1.699 0.695,-1.189"
             style="fill:#2b3467;fill-opacity:1;fill-rule:nonzero;stroke:none"
             id="path154" />
          <path
             d="m 414.7693,45.5689 c -1.361,1.153 -2.422,2.745 -3.277,4.288 -2.258,4.075 -2.993,8.748 -2.65,13.36 -0.068,-0.162 -0.135,-0.324 -0.202,-0.487 0.591,0.656 1.333,1.201 2.116,1.602 1.815,0.928 3.567,0.516 4.968,-0.93 0.618,-0.638 1.591,0.337 0.974,0.973 -1.926,1.987 -4.474,2.363 -6.884,1.012 -0.715,-0.401 -1.415,-0.921 -1.985,-1.513 -0.698,-0.726 -0.463,-2.21 -0.454,-3.147 0.045,-4.958 1.474,-9.971 4.481,-13.957 0.579,-0.768 1.202,-1.55 1.939,-2.175 0.673,-0.569 1.651,0.4 0.974,0.974"
             style="fill:#2b3467;fill-opacity:1;fill-rule:nonzero;stroke:none"
             id="path158" />
          <path
             d="m 350.9316,73.0482 c 0,0 -2.081,-34.958 26.211,-45.055 1.319,-0.471 2.798,-0.096 3.736,0.945 2.19,2.429 5.258,7.689 1.936,16.144 0,0 -22.47,-0.925 -31.883,27.966"
             style="fill:#2b3467;fill-opacity:1;fill-rule:nonzero;stroke:none"
             id="path162" />
          <path
             d="m 350.2433,73.0482 c -0.368,-6.294 0.712,-12.924 2.521,-18.924 1.628,-5.403 4.108,-10.562 7.61,-15.004 4.08,-5.176 9.512,-9.079 15.653,-11.445 2.037,-0.785 3.982,-0.754 5.519,0.982 0.943,1.065 1.701,2.297 2.263,3.601 1.809,4.202 1.265,8.83 -0.33,13.007 -0.106,0.277 -0.343,0.518 -0.664,0.505 -2.622,-0.102 -5.359,0.54 -7.831,1.335 -6.265,2.012 -11.683,6.065 -15.726,11.223 -3.471,4.429 -5.909,9.579 -7.663,14.903 -0.276,0.838 -1.606,0.479 -1.327,-0.366 2.852,-8.659 7.577,-16.845 15.025,-22.319 4.238,-3.115 9.257,-5.234 14.479,-5.938 1.001,-0.135 2.03,-0.254 3.043,-0.214 -0.221,0.168 -0.443,0.336 -0.664,0.505 1.42,-3.718 2.044,-7.799 0.6,-11.61 -0.459,-1.21 -1.119,-2.359 -1.932,-3.366 -0.539,-0.665 -1.153,-1.236 -2.028,-1.401 -1.023,-0.194 -2.08,0.344 -3.007,0.721 -5.776,2.346 -10.857,6.186 -14.656,11.132 -5.795,7.545 -8.593,17.123 -9.35,26.509 -0.164,2.04 -0.278,4.117 -0.158,6.164 0.052,0.885 -1.325,0.882 -1.377,0"
             style="fill:#2b3467;fill-opacity:1;fill-rule:nonzero;stroke:none"
             id="path166" />
          <path
             d="m 446.1661,73.0482 c 0,0 2.081,-34.958 -26.211,-45.055 -1.319,-0.471 -2.798,-0.096 -3.736,0.945 -2.19,2.429 -5.258,7.689 -1.936,16.144 0,0 22.47,-0.925 31.883,27.966"
             style="fill:#2b3467;fill-opacity:1;fill-rule:nonzero;stroke:none"
             id="path170" />
          <path
             d="m 445.4777,73.0482 c 0.327,-5.588 -0.542,-11.415 -1.972,-16.795 -2.909,-10.947 -9.387,-20.769 -19.737,-25.903 -1.635,-0.811 -4.249,-2.424 -6.073,-1.628 -1.301,0.568 -2.219,2.193 -2.838,3.411 -2.056,4.047 -1.479,8.661 0.089,12.766 -0.222,-0.169 -0.443,-0.337 -0.664,-0.505 2.848,-0.112 5.852,0.599 8.528,1.491 6.487,2.165 12.07,6.385 16.239,11.774 3.514,4.542 5.99,9.77 7.78,15.206 0.278,0.843 -1.051,1.205 -1.327,0.366 -2.781,-8.44 -7.428,-16.533 -14.78,-21.777 -4.036,-2.879 -8.777,-4.875 -13.71,-5.511 -0.898,-0.115 -1.823,-0.208 -2.73,-0.173 -0.324,0.013 -0.558,-0.227 -0.664,-0.505 -1.451,-3.801 -2.077,-8.021 -0.74,-11.951 0.826,-2.429 2.586,-5.824 5.425,-6.172 1.71,-0.209 3.5,0.787 5.019,1.478 1.586,0.721 3.123,1.552 4.589,2.494 2.674,1.716 5.121,3.79 7.248,6.15 7.052,7.824 10.454,18.304 11.45,28.642 0.227,2.359 0.384,4.771 0.245,7.142 -0.052,0.881 -1.429,0.887 -1.377,0"
             style="fill:#2b3467;fill-opacity:1;fill-rule:nonzero;stroke:none"
             id="path174" />
          <path
             d="m 399.1199,26.2956 c 9.227,-1.251 14.448,9.284 10.974,13.268 -1.731,1.985 -4.561,2.015 -6.987,1.536 -3.011,-0.596 -6.105,-0.596 -9.116,0 -2.426,0.479 -5.256,0.449 -6.987,-1.536 -3.474,-3.984 1.747,-14.519 10.974,-13.268 0.189,0.026 0.38,0.042 0.571,0.042 0,0 0.382,-0.016 0.571,-0.042"
             style="fill:#2b3467;fill-opacity:1;fill-rule:nonzero;stroke:none"
             id="path178" />
          <path
             d="m 399.1199,25.6072 c 4.669,-0.571 9.129,1.808 11.398,5.912 1.847,3.341 2.158,8.264 -2.003,9.984 -3.058,1.263 -6.389,-0.099 -9.53,-0.157 -1.972,-0.037 -3.836,0.311 -5.778,0.575 -1.354,0.184 -2.776,0.194 -4.091,-0.223 -4.415,-1.398 -4.516,-6.237 -2.751,-9.771 1.061,-2.123 2.799,-3.958 4.887,-5.093 1.164,-0.632 2.432,-1.048 3.744,-1.225 1.391,-0.187 2.748,0.13 4.124,-0.002 0.881,-0.085 0.876,1.293 0,1.377 -0.974,0.093 -1.936,-0.125 -2.914,-0.099 -1.114,0.029 -2.221,0.253 -3.258,0.665 -1.76,0.699 -3.304,1.947 -4.42,3.472 -1.735,2.369 -3.221,6.794 -0.181,8.813 2.345,1.558 5.265,0.514 7.806,0.251 1.591,-0.164 3.201,-0.163 4.792,0 1.486,0.153 2.949,0.561 4.447,0.58 2.089,0.026 4.327,-0.802 4.925,-2.985 0.396,-1.445 0.083,-3.035 -0.47,-4.395 -1.76,-4.325 -6.116,-6.866 -10.727,-6.302 -0.877,0.107 -0.87,-1.271 0,-1.377"
             style="fill:#2b3467;fill-opacity:1;fill-rule:nonzero;stroke:none"
             id="path182" />
          <path
             d="m 395.3626,33.7539 c 0,-1.421 -0.547,-2.241 -1.222,-2.241 -0.675,0 -0.934,0.958 -0.934,2.379 0,1.421 0.259,2.435 0.934,2.435 0.675,0 1.222,-1.152 1.222,-2.573"
             style="display:inline;fill:#bad7e9;fill-opacity:1;fill-rule:nonzero;stroke:none"
             id="path186" />
          <path
             d="m 401.7351,33.7539 c 0,-1.421 0.547,-2.241 1.222,-2.241 0.675,0 0.934,0.958 0.934,2.379 0,1.421 -0.259,2.435 -0.934,2.435 -0.675,0 -1.222,-1.152 -1.222,-2.573"
             style="display:inline;fill:#bad7e9;fill-opacity:1;fill-rule:nonzero;stroke:none"
             id="path190" />
        </g>
      </g>
    </g>
  </g>
</svg>
