<?xml version="1.0" encoding="UTF-8" standalone="no"?>
<svg
   width="700pt"
   height="700pt"
   version="1.1"
   viewBox="0 0 700 700"
   id="svg2004"
   sodipodi:docname="noun-on-off-4606380.svg"
   inkscape:version="1.2.1 (9c6d41e, 2022-07-14)"
   xmlns:inkscape="http://www.inkscape.org/namespaces/inkscape"
   xmlns:sodipodi="http://sodipodi.sourceforge.net/DTD/sodipodi-0.dtd"
   xmlns="http://www.w3.org/2000/svg"
   xmlns:svg="http://www.w3.org/2000/svg">
  <defs
     id="defs2008" />
  <sodipodi:namedview
     id="namedview2006"
     pagecolor="#ffffff"
     bordercolor="#000000"
     borderopacity="0.25"
     inkscape:showpageshadow="2"
     inkscape:pageopacity="0.0"
     inkscape:pagecheckerboard="0"
     inkscape:deskcolor="#d1d1d1"
     inkscape:document-units="pt"
     showgrid="false"
     inkscape:zoom="0.25285714"
     inkscape:cx="464.68927"
     inkscape:cy="466.66667"
     inkscape:window-width="1463"
     inkscape:window-height="456"
     inkscape:window-x="0"
     inkscape:window-y="25"
     inkscape:window-maximized="0"
     inkscape:current-layer="svg2004" />
  <path
     d="m 349.99528,402.8783 c -7.01333,0 -13.74329,-2.78934 -18.7022,-7.74826 -4.95892,-4.95892 -7.74385,-11.68491 -7.74385,-18.7022 V 111.95608 c 0,-9.44847 5.0386,-18.179666 13.22076,-22.903956 8.18215,-4.72429 18.26808,-4.72429 26.45058,0 8.18249,4.72429 13.22075,13.455376 13.22075,22.903956 v 264.47176 c 0,7.01775 -2.78493,13.74328 -7.74384,18.7022 -4.95892,4.95892 -11.68831,7.74826 -18.7022,7.74826 z m 238.02798,-26.44604 v -0.005 c -0.005,-47.38457 -14.15473,-93.68782 -40.63704,-132.97831 -26.47665,-39.29502 -64.08053,-69.79207 -107.99783,-87.58636 -8.74005,-3.59082 -18.7328,-2.24483 -26.21142,3.52882 -7.47827,5.77365 -11.31256,15.09778 -10.05067,24.46248 1.26189,9.36436 7.42069,17.34317 16.16096,20.93399 53.5563,21.61974 93.95419,66.99015 109.23785,122.67509 15.2882,55.69515 3.70587,115.33023 -31.31202,161.2583 -35.02185,45.92806 -89.46452,72.8785 -147.21464,72.8785 -57.75012,0 -112.19506,-26.95044 -147.21464,-72.8785 -35.01845,-45.92354 -46.60022,-105.55861 -31.31202,-161.2583 15.28367,-55.69061 55.68155,-101.05988 109.23785,-122.67509 8.74004,-3.59082 14.89942,-11.56929 16.16096,-20.93399 1.26189,-9.36436 -2.5724,-18.6886 -10.05067,-24.46248 -7.47827,-5.77365 -17.47126,-7.11953 -26.21142,-3.52882 -53.61863,21.72629 -97.49173,62.23865 -123.41184,113.95873 -25.91898,51.72348 -32.11338,111.11487 -17.42252,167.07298 14.68633,55.96038 49.25253,104.65071 97.23897,136.97944 47.98191,32.32647 106.09474,46.06522 163.46855,38.65688 57.37722,-7.41185 110.09248,-35.46504 148.29144,-78.91761 38.19669,-43.45258 59.2633,-99.32908 59.25424,-157.18915 z"
     id="path2002"
     style="stroke-width:1.13347;fill:#ffffff" />
</svg>
