<?xml version="1.0" encoding="UTF-8" standalone="no"?>
<svg
   width="700pt"
   height="700pt"
   version="1.1"
   viewBox="0 0 700 700"
   id="svg1504"
   sodipodi:docname="noun-board-game-2304009.svg"
   inkscape:version="1.2.1 (9c6d41e, 2022-07-14)"
   xmlns:inkscape="http://www.inkscape.org/namespaces/inkscape"
   xmlns:sodipodi="http://sodipodi.sourceforge.net/DTD/sodipodi-0.dtd"
   xmlns="http://www.w3.org/2000/svg"
   xmlns:svg="http://www.w3.org/2000/svg">
  <defs
     id="defs1508" />
  <sodipodi:namedview
     id="namedview1506"
     pagecolor="#ffffff"
     bordercolor="#000000"
     borderopacity="0.25"
     inkscape:showpageshadow="2"
     inkscape:pageopacity="0.0"
     inkscape:pagecheckerboard="0"
     inkscape:deskcolor="#d1d1d1"
     inkscape:document-units="pt"
     showgrid="false"
     inkscape:zoom="0.25285714"
     inkscape:cx="484.46328"
     inkscape:cy="480.50847"
     inkscape:window-width="1473"
     inkscape:window-height="863"
     inkscape:window-x="0"
     inkscape:window-y="25"
     inkscape:window-maximized="0"
     inkscape:current-layer="svg1504" />
  <g
     id="g1502"
     transform="matrix(1.3235866,0,0,1.3235866,-110.28975,-14.703674)"
     style="fill:#ffffff">
    <path
       d="m 312.09,82.105 c -3.082,0.03125 -6.1367,0.63281 -9,1.7773 l -194.05,77.293 c -6.1406,2.4453 -11.059,7.2305 -13.668,13.305 -2.6133,6.0703 -2.7031,12.934 -0.25391,19.074 l 77.293,194.05 c 2.4453,6.1406 7.2305,11.059 13.305,13.668 6.0703,2.6133 12.934,2.7031 19.074,0.25391 l 50.312,-20.051 104.27,-223.62 -23.926,-60.043 v -0.0039 c -1.8555,-4.6641 -5.082,-8.6602 -9.25,-11.461 -4.1641,-2.8047 -9.082,-4.2812 -14.105,-4.2383 z m 0.11719,11.668 c 5.457,-0.03906 10.375,3.2734 12.395,8.3398 l 22.082,55.371 -100.19,214.88 -46.027,18.32 h -0.004 c -6.793,2.7031 -14.496,-0.60938 -17.203,-7.4062 l -77.316,-194.05 0.004,0.004 c -2.707,-6.7969 0.60938,-14.5 7.4062,-17.207 l 194.05,-77.312004 h -0.004 c 1.5312,-0.60938 3.1602,-0.92578 4.8086,-0.93359 z"
       id="path1482"
       style="fill:#ffffff" />
    <path
       d="m 561.36,282.27 c 0,-10.984 -5.8594,-21.133 -15.375,-26.625 -9.5117,-5.4922 -21.23,-5.4922 -30.742,0 -9.5117,5.4922 -15.371,15.641 -15.371,26.625 0,10.98 5.8594,21.129 15.371,26.621 9.5116,5.492 21.23,5.4922 30.742,0 9.5156,-5.4922 15.375,-15.641 15.375,-26.621 z"
       id="path1484"
       style="fill:#ffffff" />
    <path
       d="m 393.34,150.49 c -4.8945,-0.17969 -9.7344,1.0859 -13.91,3.6367 -4.1797,2.5547 -7.5117,6.2812 -9.5859,10.719 l -88.273,189.31 c -2.793,5.9922 -3.0898,12.844 -0.82812,19.051 2.2578,6.2109 6.8945,11.266 12.883,14.059 l 189.31,88.297 c 5.9922,2.793 12.844,3.0938 19.051,0.83203 6.2109,-2.2617 11.27,-6.8945 14.059,-12.883 l 88.273,-189.33 0.004,-0.004 c 2.793,-5.9844 3.0938,-12.836 0.83594,-19.043 -2.2539,-6.2109 -6.8828,-11.27 -12.871,-14.062 l -189.33,-88.273 v -0.004 c -3.0195,-1.4023 -6.2891,-2.1836 -9.6133,-2.3008 z m -0.43359,11.645 c 1.7734,0.0625 3.5195,0.48047 5.1289,1.2305 l 189.31,88.273 c 3.1875,1.4844 5.6484,4.1758 6.8516,7.4805 1.1992,3.3047 1.0391,6.9492 -0.44922,10.133 l -88.273,189.31 v 0.004 c -3.0938,6.6211 -10.965,9.4844 -17.594,6.4023 l -189.33,-88.273 c -6.6211,-3.0938 -9.4844,-10.969 -6.4023,-17.594 l 88.273,-189.31 h 0.004 c 2.2422,-4.832 7.1602,-7.8477 12.484,-7.6562 z"
       id="path1486"
       style="fill:#ffffff" />
    <path
       d="m 441.79,226.52 c 0,-10.984 -5.8594,-21.133 -15.371,-26.625 -9.5117,-5.4922 -21.234,-5.4922 -30.746,0 -9.5117,5.4922 -15.371,15.641 -15.371,26.625 0,10.98 5.8594,21.133 15.371,26.621 9.5117,5.4922 21.234,5.4922 30.746,0 9.5117,-5.4883 15.371,-15.641 15.371,-26.621 z"
       id="path1488"
       style="fill:#ffffff" />
    <path
       d="m 505.61,401.83 c 0,-10.984 -5.8594,-21.133 -15.371,-26.625 -9.5116,-5.492 -21.23,-5.4922 -30.742,0 -9.5117,5.4922 -15.371,15.641 -15.371,26.625 0,10.984 5.8594,21.133 15.371,26.625 9.5117,5.4883 21.23,5.4883 30.742,0 9.5117,-5.4922 15.371,-15.641 15.371,-26.625 z"
       id="path1490"
       style="fill:#ffffff" />
    <path
       d="m 473.7,314.17 c 0,-10.98 -5.8594,-21.133 -15.371,-26.621 -9.5117,-5.4922 -21.23,-5.4922 -30.742,0 -9.5117,5.4883 -15.371,15.641 -15.371,26.621 0,10.984 5.8594,21.133 15.371,26.625 9.5117,5.4922 21.23,5.4922 30.742,0 9.512,-5.4922 15.371,-15.641 15.371,-26.625 z"
       id="path1492"
       style="fill:#ffffff" />
    <path
       d="m 386.04,346.08 c 0,-10.984 -5.8594,-21.133 -15.371,-26.625 -9.5116,-5.492 -21.23,-5.4922 -30.742,0 -9.5117,5.4922 -15.371,15.641 -15.371,26.625 0,10.984 5.8594,21.133 15.371,26.625 9.5117,5.4922 21.23,5.4922 30.742,0 9.512,-5.4922 15.371,-15.641 15.371,-26.625 z"
       id="path1494"
       style="fill:#ffffff" />
    <path
       d="m 198.98,205.84 c 0.0977,-8.2148 -3.1016,-16.129 -8.875,-21.969 -5.7773,-5.8438 -13.648,-9.1328 -21.863,-9.1328 -8.2188,0 -16.09,3.2891 -21.867,9.1328 -5.7734,5.8398 -8.9727,13.754 -8.875,21.969 -0.0977,8.2148 3.1016,16.125 8.875,21.969 5.7773,5.8438 13.648,9.1328 21.867,9.1328 8.2148,0 16.086,-3.2891 21.863,-9.1328 5.7734,-5.8438 8.9727,-13.754 8.875,-21.969 z"
       id="path1496"
       style="fill:#ffffff" />
    <path
       d="m 247.8,328.39 c 0,-10.984 -5.8594,-21.133 -15.371,-26.625 -9.5117,-5.4922 -21.23,-5.4922 -30.742,0 -9.5117,5.4922 -15.371,15.641 -15.371,26.625 0,10.984 5.8594,21.133 15.371,26.625 9.5117,5.4922 21.23,5.4922 30.742,0 9.5117,-5.4922 15.371,-15.641 15.371,-26.625 z"
       id="path1498"
       style="fill:#ffffff" />
    <path
       d="m 321.53,157.01 c 0,-10.984 -5.8594,-21.133 -15.371,-26.625 -9.5117,-5.4883 -21.23,-5.4883 -30.742,0 -9.5117,5.4922 -15.371,15.641 -15.371,26.625 0,10.984 5.8594,21.133 15.371,26.625 9.5117,5.4922 21.23,5.4922 30.742,0 9.5117,-5.4922 15.371,-15.641 15.371,-26.625 z"
       id="path1500"
       style="fill:#ffffff" />
  </g>
</svg>
